<svg aria-roledescription="er" role="graphics-document document" viewBox="0 0 650.7833251953125 496" style="max-width: 650.7833251953125px;" xmlns="http://www.w3.org/2000/svg" width="100%" id="export-svg"><style xmlns="http://www.w3.org/1999/xhtml">@import url("https://cdnjs.cloudflare.com/ajax/libs/font-awesome/6.2.0/css/all.min.css"); p {margin: 0;}</style><style>#export-svg{font-family:"trebuchet ms",verdana,arial,sans-serif;font-size:14px;fill:#333;}#export-svg .error-icon{fill:#ffffff;}#export-svg .error-text{fill:#000000;stroke:#000000;}#export-svg .edge-thickness-normal{stroke-width:1px;}#export-svg .edge-thickness-thick{stroke-width:3.5px;}#export-svg .edge-pattern-solid{stroke-dasharray:0;}#export-svg .edge-thickness-invisible{stroke-width:0;fill:none;}#export-svg .edge-pattern-dashed{stroke-dasharray:3;}#export-svg .edge-pattern-dotted{stroke-dasharray:2;}#export-svg .marker{fill:#000000;stroke:#000000;}#export-svg .marker.cross{stroke:#000000;}#export-svg svg{font-family:"trebuchet ms",verdana,arial,sans-serif;font-size:14px;}#export-svg p{margin:0;}#export-svg .entityBox{fill:#ffffff;stroke:#000000;}#export-svg .attributeBoxOdd{fill:#ffffff;stroke:#000000;}#export-svg .attributeBoxEven{fill:#f2f2f2;stroke:#000000;}#export-svg .relationshipLabelBox{fill:#ffffff;opacity:0.7;background-color:#ffffff;}#export-svg .relationshipLabelBox rect{opacity:0.5;}#export-svg .relationshipLine{stroke:#000000;}#export-svg .entityTitleText{text-anchor:middle;font-size:18px;fill:#333;}#export-svg #MD_PARENT_START{fill:#f5f5f5!important;stroke:#000000!important;stroke-width:1;}#export-svg #MD_PARENT_END{fill:#f5f5f5!important;stroke:#000000!important;stroke-width:1;}#export-svg .node .neo-node{stroke:#000000;}#export-svg [data-look="neo"].node rect,#export-svg [data-look="neo"].cluster rect,#export-svg [data-look="neo"].node polygon{stroke:url(#export-svg-gradient);filter:drop-shadow( 0px 1px 2px rgba(0, 0, 0, 0.25));}#export-svg [data-look="neo"].node rect,#export-svg [data-look="neo"].node polygon,#export-svg [data-look="neo"].node path{stroke:url(#export-svg-gradient);filter:drop-shadow( 0px 1px 2px rgba(0, 0, 0, 0.25));}#export-svg [data-look="neo"].node .neo-line path{stroke:hsl(0, 0%, 70%);filter:none;}#export-svg [data-look="neo"].node circle{stroke:url(#export-svg-gradient);filter:drop-shadow( 0px 1px 2px rgba(0, 0, 0, 0.25));}#export-svg [data-look="neo"].node circle .state-start{fill:#000000;}#export-svg [data-look="neo"].statediagram-cluster rect{fill:#ffffff;stroke:url(#export-svg-gradient);stroke-width:1px;}#export-svg [data-look="neo"].icon-shape .icon{fill:url(#export-svg-gradient);filter:drop-shadow( 0px 1px 2px rgba(0, 0, 0, 0.25));}#export-svg [data-look="neo"].icon-shape .icon-neo path{stroke:url(#export-svg-gradient);filter:drop-shadow( 0px 1px 2px rgba(0, 0, 0, 0.25));}#export-svg :root{--mermaid-font-family:"trebuchet ms",verdana,arial,sans-serif;}</style><g/><defs><marker orient="auto" markerHeight="240" markerWidth="190" refY="7" refX="0" id="MD_PARENT_START"><path d="M 18,7 L9,13 L1,7 L9,1 Z"/></marker></defs><defs><marker orient="auto" markerHeight="28" markerWidth="20" refY="7" refX="19" id="MD_PARENT_END"><path d="M 18,7 L9,13 L1,7 L9,1 Z"/></marker></defs><defs><marker orient="auto" markerHeight="18" markerWidth="18" refY="9" refX="0" id="ONLY_ONE_START"><path d="M9,0 L9,18 M15,0 L15,18" fill="none" stroke="gray"/></marker></defs><defs><marker orient="auto" markerHeight="18" markerWidth="18" refY="9" refX="18" id="ONLY_ONE_END"><path d="M3,0 L3,18 M9,0 L9,18" fill="none" stroke="gray"/></marker></defs><defs><marker orient="auto" markerHeight="18" markerWidth="30" refY="9" refX="0" id="ZERO_OR_ONE_START"><circle r="6" cy="9" cx="21" fill="white" stroke="gray"/><path d="M9,0 L9,18" fill="none" stroke="gray"/></marker></defs><defs><marker orient="auto" markerHeight="18" markerWidth="30" refY="9" refX="30" id="ZERO_OR_ONE_END"><circle r="6" cy="9" cx="9" fill="white" stroke="gray"/><path d="M21,0 L21,18" fill="none" stroke="gray"/></marker></defs><defs><marker orient="auto" markerHeight="36" markerWidth="45" refY="18" refX="18" id="ONE_OR_MORE_START"><path d="M0,18 Q 18,0 36,18 Q 18,36 0,18 M42,9 L42,27" fill="none" stroke="gray"/></marker></defs><defs><marker orient="auto" markerHeight="36" markerWidth="45" refY="18" refX="27" id="ONE_OR_MORE_END"><path d="M3,9 L3,27 M9,18 Q27,0 45,18 Q27,36 9,18" fill="none" stroke="gray"/></marker></defs><defs><marker orient="auto" markerHeight="36" markerWidth="57" refY="18" refX="18" id="ZERO_OR_MORE_START"><circle r="6" cy="18" cx="48" fill="white" stroke="gray"/><path d="M0,18 Q18,0 36,18 Q18,36 0,18" fill="none" stroke="gray"/></marker></defs><defs><marker orient="auto" markerHeight="36" markerWidth="57" refY="18" refX="39" id="ZERO_OR_MORE_END"><circle r="6" cy="18" cx="9" fill="white" stroke="gray"/><path d="M21,18 Q39,0 57,18 Q39,36 21,18" fill="none" stroke="gray"/></marker></defs><path marker-start="url(#ONLY_ONE_START)" marker-end="url(#ZERO_OR_MORE_END)" style="stroke: gray; fill: none;" d="M90.225,176L90.225,195.333C90.225,214.667,90.225,253.333,90.225,281C90.225,308.667,90.225,325.333,90.225,333.667L90.225,342" class="er relationshipLine"/><path marker-start="url(#ONLY_ONE_START)" marker-end="url(#ONE_OR_MORE_END)" style="stroke: gray; fill: none;" d="M378.033,222.762L369.606,234.302C361.178,245.841,344.322,268.921,335.894,292.46C327.467,316,327.467,340,327.467,352L327.467,364" class="er relationshipLine"/><path marker-start="url(#ONLY_ONE_START)" marker-end="url(#ONE_OR_MORE_END)" style="stroke: gray; fill: none;" d="M512.067,222.762L520.494,234.302C528.922,245.841,545.778,268.921,554.206,294.294C562.633,319.667,562.633,347.333,562.633,361.167L562.633,375" class="er relationshipLine"/><g transform="translate(28.308330535888672,86 )" id="entity-GameMode-78e3906b-4acc-5612-ab56-0dc66e2b42ba"><rect height="90" width="123.83333206176758" y="0" x="0" class="er entityBox"/><text transform="translate(61.91666603088379,12)" style="dominant-baseline: middle; text-anchor: middle; font-size: 12px;" y="0" x="0" id="text-entity-GameMode-78e3906b-4acc-5612-ab56-0dc66e2b42ba" class="er entityLabel">GameMode</text><rect height="22" width="36.933332443237305" y="24" x="0" class="er attributeBoxOdd"/><text transform="translate(5,35)" style="dominant-baseline: middle; font-size: 10.2px;" y="0" x="0" id="text-entity-GameMode-78e3906b-4acc-5612-ab56-0dc66e2b42ba-attr-1-type" class="er entityLabel">string</text><rect height="22" width="61.29999923706055" y="24" x="36.933332443237305" class="er attributeBoxOdd"/><text transform="translate(41.933332443237305,35)" style="dominant-baseline: middle; font-size: 10.2px;" y="0" x="0" id="text-entity-GameMode-78e3906b-4acc-5612-ab56-0dc66e2b42ba-attr-1-name" class="er entityLabel">id</text><rect height="22" width="25.600000381469727" y="24" x="98.23333168029785" class="er attributeBoxOdd"/><text transform="translate(103.23333168029785,35)" style="dominant-baseline: middle; font-size: 10.2px;" y="0" x="0" id="text-entity-GameMode-78e3906b-4acc-5612-ab56-0dc66e2b42ba-attr-1-key" class="er entityLabel">PK</text><rect height="22" width="36.933332443237305" y="46" x="0" class="er attributeBoxEven"/><text transform="translate(5,57)" style="dominant-baseline: middle; font-size: 10.2px;" y="0" x="0" id="text-entity-GameMode-78e3906b-4acc-5612-ab56-0dc66e2b42ba-attr-2-type" class="er entityLabel">string</text><rect height="22" width="61.29999923706055" y="46" x="36.933332443237305" class="er attributeBoxEven"/><text transform="translate(41.933332443237305,57)" style="dominant-baseline: middle; font-size: 10.2px;" y="0" x="0" id="text-entity-GameMode-78e3906b-4acc-5612-ab56-0dc66e2b42ba-attr-2-name" class="er entityLabel">name</text><rect height="22" width="25.600000381469727" y="46" x="98.23333168029785" class="er attributeBoxEven"/><text transform="translate(103.23333168029785,57)" style="dominant-baseline: middle; font-size: 10.2px;" y="0" x="0" id="text-entity-GameMode-78e3906b-4acc-5612-ab56-0dc66e2b42ba-attr-2-key" class="er entityLabel"/><rect height="22" width="36.933332443237305" y="68" x="0" class="er attributeBoxOdd"/><text transform="translate(5,79)" style="dominant-baseline: middle; font-size: 10.2px;" y="0" x="0" id="text-entity-GameMode-78e3906b-4acc-5612-ab56-0dc66e2b42ba-attr-3-type" class="er entityLabel">string</text><rect height="22" width="61.29999923706055" y="68" x="36.933332443237305" class="er attributeBoxOdd"/><text transform="translate(41.933332443237305,79)" style="dominant-baseline: middle; font-size: 10.2px;" y="0" x="0" id="text-entity-GameMode-78e3906b-4acc-5612-ab56-0dc66e2b42ba-attr-3-name" class="er entityLabel">description</text><rect height="22" width="25.600000381469727" y="68" x="98.23333168029785" class="er attributeBoxOdd"/><text transform="translate(103.23333168029785,79)" style="dominant-baseline: middle; font-size: 10.2px;" y="0" x="0" id="text-entity-GameMode-78e3906b-4acc-5612-ab56-0dc66e2b42ba-attr-3-key" class="er entityLabel"/></g><g transform="translate(20,342 )" id="entity-Level-7c6c0105-2ebf-53e7-b063-976bee569cce"><rect height="134" width="140.44999885559082" y="0" x="0" class="er entityBox"/><text transform="translate(70.22499942779541,12)" style="dominant-baseline: middle; text-anchor: middle; font-size: 12px;" y="0" x="0" id="text-entity-Level-7c6c0105-2ebf-53e7-b063-976bee569cce" class="er entityLabel">Level</text><rect height="22" width="42.599998474121094" y="24" x="0" class="er attributeBoxOdd"/><text transform="translate(5,35)" style="dominant-baseline: middle; font-size: 10.2px;" y="0" x="0" id="text-entity-Level-7c6c0105-2ebf-53e7-b063-976bee569cce-attr-1-type" class="er entityLabel">string</text><rect height="22" width="72.25" y="24" x="42.599998474121094" class="er attributeBoxOdd"/><text transform="translate(47.599998474121094,35)" style="dominant-baseline: middle; font-size: 10.2px;" y="0" x="0" id="text-entity-Level-7c6c0105-2ebf-53e7-b063-976bee569cce-attr-1-name" class="er entityLabel">id</text><rect height="22" width="25.600000381469727" y="24" x="114.8499984741211" class="er attributeBoxOdd"/><text transform="translate(119.8499984741211,35)" style="dominant-baseline: middle; font-size: 10.2px;" y="0" x="0" id="text-entity-Level-7c6c0105-2ebf-53e7-b063-976bee569cce-attr-1-key" class="er entityLabel">PK</text><rect height="22" width="42.599998474121094" y="46" x="0" class="er attributeBoxEven"/><text transform="translate(5,57)" style="dominant-baseline: middle; font-size: 10.2px;" y="0" x="0" id="text-entity-Level-7c6c0105-2ebf-53e7-b063-976bee569cce-attr-2-type" class="er entityLabel">string</text><rect height="22" width="72.25" y="46" x="42.599998474121094" class="er attributeBoxEven"/><text transform="translate(47.599998474121094,57)" style="dominant-baseline: middle; font-size: 10.2px;" y="0" x="0" id="text-entity-Level-7c6c0105-2ebf-53e7-b063-976bee569cce-attr-2-name" class="er entityLabel">name</text><rect height="22" width="25.600000381469727" y="46" x="114.8499984741211" class="er attributeBoxEven"/><text transform="translate(119.8499984741211,57)" style="dominant-baseline: middle; font-size: 10.2px;" y="0" x="0" id="text-entity-Level-7c6c0105-2ebf-53e7-b063-976bee569cce-attr-2-key" class="er entityLabel"/><rect height="22" width="42.599998474121094" y="68" x="0" class="er attributeBoxOdd"/><text transform="translate(5,79)" style="dominant-baseline: middle; font-size: 10.2px;" y="0" x="0" id="text-entity-Level-7c6c0105-2ebf-53e7-b063-976bee569cce-attr-3-type" class="er entityLabel">string</text><rect height="22" width="72.25" y="68" x="42.599998474121094" class="er attributeBoxOdd"/><text transform="translate(47.599998474121094,79)" style="dominant-baseline: middle; font-size: 10.2px;" y="0" x="0" id="text-entity-Level-7c6c0105-2ebf-53e7-b063-976bee569cce-attr-3-name" class="er entityLabel">description</text><rect height="22" width="25.600000381469727" y="68" x="114.8499984741211" class="er attributeBoxOdd"/><text transform="translate(119.8499984741211,79)" style="dominant-baseline: middle; font-size: 10.2px;" y="0" x="0" id="text-entity-Level-7c6c0105-2ebf-53e7-b063-976bee569cce-attr-3-key" class="er entityLabel"/><rect height="22" width="42.599998474121094" y="90" x="0" class="er attributeBoxEven"/><text transform="translate(5,101)" style="dominant-baseline: middle; font-size: 10.2px;" y="0" x="0" id="text-entity-Level-7c6c0105-2ebf-53e7-b063-976bee569cce-attr-4-type" class="er entityLabel">int</text><rect height="22" width="72.25" y="90" x="42.599998474121094" class="er attributeBoxEven"/><text transform="translate(47.599998474121094,101)" style="dominant-baseline: middle; font-size: 10.2px;" y="0" x="0" id="text-entity-Level-7c6c0105-2ebf-53e7-b063-976bee569cce-attr-4-name" class="er entityLabel">sugTimeLimit</text><rect height="22" width="25.600000381469727" y="90" x="114.8499984741211" class="er attributeBoxEven"/><text transform="translate(119.8499984741211,101)" style="dominant-baseline: middle; font-size: 10.2px;" y="0" x="0" id="text-entity-Level-7c6c0105-2ebf-53e7-b063-976bee569cce-attr-4-key" class="er entityLabel"/><rect height="22" width="42.599998474121094" y="112" x="0" class="er attributeBoxOdd"/><text transform="translate(5,123)" style="dominant-baseline: middle; font-size: 10.2px;" y="0" x="0" id="text-entity-Level-7c6c0105-2ebf-53e7-b063-976bee569cce-attr-5-type" class="er entityLabel">string[]</text><rect height="22" width="72.25" y="112" x="42.599998474121094" class="er attributeBoxOdd"/><text transform="translate(47.599998474121094,123)" style="dominant-baseline: middle; font-size: 10.2px;" y="0" x="0" id="text-entity-Level-7c6c0105-2ebf-53e7-b063-976bee569cce-attr-5-name" class="er entityLabel">gameRefs</text><rect height="22" width="25.600000381469727" y="112" x="114.8499984741211" class="er attributeBoxOdd"/><text transform="translate(119.8499984741211,123)" style="dominant-baseline: middle; font-size: 10.2px;" y="0" x="0" id="text-entity-Level-7c6c0105-2ebf-53e7-b063-976bee569cce-attr-5-key" class="er entityLabel"/></g><g transform="translate(378.03334045410156,20 )" id="entity-Game-87e52c75-2f34-5ffb-97f0-d4ba8ef70a3a"><rect height="222" width="134.03333282470703" y="0" x="0" class="er entityBox"/><text transform="translate(67.01666641235352,12)" style="dominant-baseline: middle; text-anchor: middle; font-size: 12px;" y="0" x="0" id="text-entity-Game-87e52c75-2f34-5ffb-97f0-d4ba8ef70a3a" class="er entityLabel">Game</text><rect height="22" width="36.933332443237305" y="24" x="0" class="er attributeBoxOdd"/><text transform="translate(5,35)" style="dominant-baseline: middle; font-size: 10.2px;" y="0" x="0" id="text-entity-Game-87e52c75-2f34-5ffb-97f0-d4ba8ef70a3a-attr-1-type" class="er entityLabel">string</text><rect height="22" width="71.5" y="24" x="36.933332443237305" class="er attributeBoxOdd"/><text transform="translate(41.933332443237305,35)" style="dominant-baseline: middle; font-size: 10.2px;" y="0" x="0" id="text-entity-Game-87e52c75-2f34-5ffb-97f0-d4ba8ef70a3a-attr-1-name" class="er entityLabel">id</text><rect height="22" width="25.600000381469727" y="24" x="108.4333324432373" class="er attributeBoxOdd"/><text transform="translate(113.4333324432373,35)" style="dominant-baseline: middle; font-size: 10.2px;" y="0" x="0" id="text-entity-Game-87e52c75-2f34-5ffb-97f0-d4ba8ef70a3a-attr-1-key" class="er entityLabel">PK</text><rect height="22" width="36.933332443237305" y="46" x="0" class="er attributeBoxEven"/><text transform="translate(5,57)" style="dominant-baseline: middle; font-size: 10.2px;" y="0" x="0" id="text-entity-Game-87e52c75-2f34-5ffb-97f0-d4ba8ef70a3a-attr-2-type" class="er entityLabel">string</text><rect height="22" width="71.5" y="46" x="36.933332443237305" class="er attributeBoxEven"/><text transform="translate(41.933332443237305,57)" style="dominant-baseline: middle; font-size: 10.2px;" y="0" x="0" id="text-entity-Game-87e52c75-2f34-5ffb-97f0-d4ba8ef70a3a-attr-2-name" class="er entityLabel">name</text><rect height="22" width="25.600000381469727" y="46" x="108.4333324432373" class="er attributeBoxEven"/><text transform="translate(113.4333324432373,57)" style="dominant-baseline: middle; font-size: 10.2px;" y="0" x="0" id="text-entity-Game-87e52c75-2f34-5ffb-97f0-d4ba8ef70a3a-attr-2-key" class="er entityLabel"/><rect height="22" width="36.933332443237305" y="68" x="0" class="er attributeBoxOdd"/><text transform="translate(5,79)" style="dominant-baseline: middle; font-size: 10.2px;" y="0" x="0" id="text-entity-Game-87e52c75-2f34-5ffb-97f0-d4ba8ef70a3a-attr-3-type" class="er entityLabel">string</text><rect height="22" width="71.5" y="68" x="36.933332443237305" class="er attributeBoxOdd"/><text transform="translate(41.933332443237305,79)" style="dominant-baseline: middle; font-size: 10.2px;" y="0" x="0" id="text-entity-Game-87e52c75-2f34-5ffb-97f0-d4ba8ef70a3a-attr-3-name" class="er entityLabel">description</text><rect height="22" width="25.600000381469727" y="68" x="108.4333324432373" class="er attributeBoxOdd"/><text transform="translate(113.4333324432373,79)" style="dominant-baseline: middle; font-size: 10.2px;" y="0" x="0" id="text-entity-Game-87e52c75-2f34-5ffb-97f0-d4ba8ef70a3a-attr-3-key" class="er entityLabel"/><rect height="22" width="36.933332443237305" y="90" x="0" class="er attributeBoxEven"/><text transform="translate(5,101)" style="dominant-baseline: middle; font-size: 10.2px;" y="0" x="0" id="text-entity-Game-87e52c75-2f34-5ffb-97f0-d4ba8ef70a3a-attr-4-type" class="er entityLabel">string</text><rect height="22" width="71.5" y="90" x="36.933332443237305" class="er attributeBoxEven"/><text transform="translate(41.933332443237305,101)" style="dominant-baseline: middle; font-size: 10.2px;" y="0" x="0" id="text-entity-Game-87e52c75-2f34-5ffb-97f0-d4ba8ef70a3a-attr-4-name" class="er entityLabel">instructions</text><rect height="22" width="25.600000381469727" y="90" x="108.4333324432373" class="er attributeBoxEven"/><text transform="translate(113.4333324432373,101)" style="dominant-baseline: middle; font-size: 10.2px;" y="0" x="0" id="text-entity-Game-87e52c75-2f34-5ffb-97f0-d4ba8ef70a3a-attr-4-key" class="er entityLabel"/><rect height="22" width="36.933332443237305" y="112" x="0" class="er attributeBoxOdd"/><text transform="translate(5,123)" style="dominant-baseline: middle; font-size: 10.2px;" y="0" x="0" id="text-entity-Game-87e52c75-2f34-5ffb-97f0-d4ba8ef70a3a-attr-5-type" class="er entityLabel">int</text><rect height="22" width="71.5" y="112" x="36.933332443237305" class="er attributeBoxOdd"/><text transform="translate(41.933332443237305,123)" style="dominant-baseline: middle; font-size: 10.2px;" y="0" x="0" id="text-entity-Game-87e52c75-2f34-5ffb-97f0-d4ba8ef70a3a-attr-5-name" class="er entityLabel">timeLimit</text><rect height="22" width="25.600000381469727" y="112" x="108.4333324432373" class="er attributeBoxOdd"/><text transform="translate(113.4333324432373,123)" style="dominant-baseline: middle; font-size: 10.2px;" y="0" x="0" id="text-entity-Game-87e52c75-2f34-5ffb-97f0-d4ba8ef70a3a-attr-5-key" class="er entityLabel"/><rect height="22" width="36.933332443237305" y="134" x="0" class="er attributeBoxEven"/><text transform="translate(5,145)" style="dominant-baseline: middle; font-size: 10.2px;" y="0" x="0" id="text-entity-Game-87e52c75-2f34-5ffb-97f0-d4ba8ef70a3a-attr-6-type" class="er entityLabel">Date</text><rect height="22" width="71.5" y="134" x="36.933332443237305" class="er attributeBoxEven"/><text transform="translate(41.933332443237305,145)" style="dominant-baseline: middle; font-size: 10.2px;" y="0" x="0" id="text-entity-Game-87e52c75-2f34-5ffb-97f0-d4ba8ef70a3a-attr-6-name" class="er entityLabel">createdAt</text><rect height="22" width="25.600000381469727" y="134" x="108.4333324432373" class="er attributeBoxEven"/><text transform="translate(113.4333324432373,145)" style="dominant-baseline: middle; font-size: 10.2px;" y="0" x="0" id="text-entity-Game-87e52c75-2f34-5ffb-97f0-d4ba8ef70a3a-attr-6-key" class="er entityLabel"/><rect height="22" width="36.933332443237305" y="156" x="0" class="er attributeBoxOdd"/><text transform="translate(5,167)" style="dominant-baseline: middle; font-size: 10.2px;" y="0" x="0" id="text-entity-Game-87e52c75-2f34-5ffb-97f0-d4ba8ef70a3a-attr-7-type" class="er entityLabel">Date</text><rect height="22" width="71.5" y="156" x="36.933332443237305" class="er attributeBoxOdd"/><text transform="translate(41.933332443237305,167)" style="dominant-baseline: middle; font-size: 10.2px;" y="0" x="0" id="text-entity-Game-87e52c75-2f34-5ffb-97f0-d4ba8ef70a3a-attr-7-name" class="er entityLabel">updatedAt</text><rect height="22" width="25.600000381469727" y="156" x="108.4333324432373" class="er attributeBoxOdd"/><text transform="translate(113.4333324432373,167)" style="dominant-baseline: middle; font-size: 10.2px;" y="0" x="0" id="text-entity-Game-87e52c75-2f34-5ffb-97f0-d4ba8ef70a3a-attr-7-key" class="er entityLabel"/><rect height="22" width="36.933332443237305" y="178" x="0" class="er attributeBoxEven"/><text transform="translate(5,189)" style="dominant-baseline: middle; font-size: 10.2px;" y="0" x="0" id="text-entity-Game-87e52c75-2f34-5ffb-97f0-d4ba8ef70a3a-attr-8-type" class="er entityLabel">string</text><rect height="22" width="71.5" y="178" x="36.933332443237305" class="er attributeBoxEven"/><text transform="translate(41.933332443237305,189)" style="dominant-baseline: middle; font-size: 10.2px;" y="0" x="0" id="text-entity-Game-87e52c75-2f34-5ffb-97f0-d4ba8ef70a3a-attr-8-name" class="er entityLabel">gameModeId</text><rect height="22" width="25.600000381469727" y="178" x="108.4333324432373" class="er attributeBoxEven"/><text transform="translate(113.4333324432373,189)" style="dominant-baseline: middle; font-size: 10.2px;" y="0" x="0" id="text-entity-Game-87e52c75-2f34-5ffb-97f0-d4ba8ef70a3a-attr-8-key" class="er entityLabel">FK</text><rect height="22" width="36.933332443237305" y="200" x="0" class="er attributeBoxOdd"/><text transform="translate(5,211)" style="dominant-baseline: middle; font-size: 10.2px;" y="0" x="0" id="text-entity-Game-87e52c75-2f34-5ffb-97f0-d4ba8ef70a3a-attr-9-type" class="er entityLabel">string</text><rect height="22" width="71.5" y="200" x="36.933332443237305" class="er attributeBoxOdd"/><text transform="translate(41.933332443237305,211)" style="dominant-baseline: middle; font-size: 10.2px;" y="0" x="0" id="text-entity-Game-87e52c75-2f34-5ffb-97f0-d4ba8ef70a3a-attr-9-name" class="er entityLabel">levelId</text><rect height="22" width="25.600000381469727" y="200" x="108.4333324432373" class="er attributeBoxOdd"/><text transform="translate(113.4333324432373,211)" style="dominant-baseline: middle; font-size: 10.2px;" y="0" x="0" id="text-entity-Game-87e52c75-2f34-5ffb-97f0-d4ba8ef70a3a-attr-9-key" class="er entityLabel">FK</text></g><g transform="translate(260.4499969482422,364 )" id="entity-WordGame-69337875-e1fa-5d3b-ae18-59a9042cedc1"><rect height="90" width="134.03333473205566" y="0" x="0" class="er entityBox"/><text transform="translate(67.01666736602783,12)" style="dominant-baseline: middle; text-anchor: middle; font-size: 12px;" y="0" x="0" id="text-entity-WordGame-69337875-e1fa-5d3b-ae18-59a9042cedc1" class="er entityLabel">WordGame</text><rect height="22" width="37.5" y="24" x="0" class="er attributeBoxOdd"/><text transform="translate(5,35)" style="dominant-baseline: middle; font-size: 10.2px;" y="0" x="0" id="text-entity-WordGame-69337875-e1fa-5d3b-ae18-59a9042cedc1-attr-1-type" class="er entityLabel">string</text><rect height="22" width="70.93333435058594" y="24" x="37.5" class="er attributeBoxOdd"/><text transform="translate(42.5,35)" style="dominant-baseline: middle; font-size: 10.2px;" y="0" x="0" id="text-entity-WordGame-69337875-e1fa-5d3b-ae18-59a9042cedc1-attr-1-name" class="er entityLabel">id</text><rect height="22" width="25.600000381469727" y="24" x="108.43333435058594" class="er attributeBoxOdd"/><text transform="translate(113.43333435058594,35)" style="dominant-baseline: middle; font-size: 10.2px;" y="0" x="0" id="text-entity-WordGame-69337875-e1fa-5d3b-ae18-59a9042cedc1-attr-1-key" class="er entityLabel">PK</text><rect height="22" width="37.5" y="46" x="0" class="er attributeBoxEven"/><text transform="translate(5,57)" style="dominant-baseline: middle; font-size: 10.2px;" y="0" x="0" id="text-entity-WordGame-69337875-e1fa-5d3b-ae18-59a9042cedc1-attr-2-type" class="er entityLabel">enum</text><rect height="22" width="70.93333435058594" y="46" x="37.5" class="er attributeBoxEven"/><text transform="translate(42.5,57)" style="dominant-baseline: middle; font-size: 10.2px;" y="0" x="0" id="text-entity-WordGame-69337875-e1fa-5d3b-ae18-59a9042cedc1-attr-2-name" class="er entityLabel">letterPosition</text><rect height="22" width="25.600000381469727" y="46" x="108.43333435058594" class="er attributeBoxEven"/><text transform="translate(113.43333435058594,57)" style="dominant-baseline: middle; font-size: 10.2px;" y="0" x="0" id="text-entity-WordGame-69337875-e1fa-5d3b-ae18-59a9042cedc1-attr-2-key" class="er entityLabel"/><rect height="22" width="37.5" y="68" x="0" class="er attributeBoxOdd"/><text transform="translate(5,79)" style="dominant-baseline: middle; font-size: 10.2px;" y="0" x="0" id="text-entity-WordGame-69337875-e1fa-5d3b-ae18-59a9042cedc1-attr-3-type" class="er entityLabel">string</text><rect height="22" width="70.93333435058594" y="68" x="37.5" class="er attributeBoxOdd"/><text transform="translate(42.5,79)" style="dominant-baseline: middle; font-size: 10.2px;" y="0" x="0" id="text-entity-WordGame-69337875-e1fa-5d3b-ae18-59a9042cedc1-attr-3-name" class="er entityLabel">targetLetter</text><rect height="22" width="25.600000381469727" y="68" x="108.43333435058594" class="er attributeBoxOdd"/><text transform="translate(113.43333435058594,79)" style="dominant-baseline: middle; font-size: 10.2px;" y="0" x="0" id="text-entity-WordGame-69337875-e1fa-5d3b-ae18-59a9042cedc1-attr-3-key" class="er entityLabel"/></g><g transform="translate(494.48333740234375,375 )" id="entity-CategoryGame-e4492a58-e3f4-5434-9e26-6e8ecabe74f9"><rect height="68" width="136.2999973297119" y="0" x="0" class="er entityBox"/><text transform="translate(68.14999866485596,12)" style="dominant-baseline: middle; text-anchor: middle; font-size: 12px;" y="0" x="0" id="text-entity-CategoryGame-e4492a58-e3f4-5434-9e26-6e8ecabe74f9" class="er entityLabel">CategoryGame</text><rect height="22" width="42.599998474121094" y="24" x="0" class="er attributeBoxOdd"/><text transform="translate(5,35)" style="dominant-baseline: middle; font-size: 10.2px;" y="0" x="0" id="text-entity-CategoryGame-e4492a58-e3f4-5434-9e26-6e8ecabe74f9-attr-1-type" class="er entityLabel">string</text><rect height="22" width="68.0999984741211" y="24" x="42.599998474121094" class="er attributeBoxOdd"/><text transform="translate(47.599998474121094,35)" style="dominant-baseline: middle; font-size: 10.2px;" y="0" x="0" id="text-entity-CategoryGame-e4492a58-e3f4-5434-9e26-6e8ecabe74f9-attr-1-name" class="er entityLabel">id</text><rect height="22" width="25.600000381469727" y="24" x="110.69999694824219" class="er attributeBoxOdd"/><text transform="translate(115.69999694824219,35)" style="dominant-baseline: middle; font-size: 10.2px;" y="0" x="0" id="text-entity-CategoryGame-e4492a58-e3f4-5434-9e26-6e8ecabe74f9-attr-1-key" class="er entityLabel">PK</text><rect height="22" width="42.599998474121094" y="46" x="0" class="er attributeBoxEven"/><text transform="translate(5,57)" style="dominant-baseline: middle; font-size: 10.2px;" y="0" x="0" id="text-entity-CategoryGame-e4492a58-e3f4-5434-9e26-6e8ecabe74f9-attr-2-type" class="er entityLabel">string[]</text><rect height="22" width="68.0999984741211" y="46" x="42.599998474121094" class="er attributeBoxEven"/><text transform="translate(47.599998474121094,57)" style="dominant-baseline: middle; font-size: 10.2px;" y="0" x="0" id="text-entity-CategoryGame-e4492a58-e3f4-5434-9e26-6e8ecabe74f9-attr-2-name" class="er entityLabel">answerBank</text><rect height="22" width="25.600000381469727" y="46" x="110.69999694824219" class="er attributeBoxEven"/><text transform="translate(115.69999694824219,57)" style="dominant-baseline: middle; font-size: 10.2px;" y="0" x="0" id="text-entity-CategoryGame-e4492a58-e3f4-5434-9e26-6e8ecabe74f9-attr-2-key" class="er entityLabel"/></g><rect height="14" width="46.66666793823242" y="252" x="66.89166450500488" class="er relationshipLabelBox"/><text style="text-anchor: middle; dominant-baseline: middle; font-size: 12px;" y="259" x="90.2249984741211" id="rel10" class="er relationshipLabel">contains</text><rect height="14" width="21.33333396911621" y="281.1166687011719" x="326.87736988067627" class="er relationshipLabelBox"/><text style="text-anchor: middle; dominant-baseline: middle; font-size: 12px;" y="288.1166687011719" x="337.5440368652344" id="rel11" class="er relationshipLabel">is-a</text><rect height="14" width="21.33333396911621" y="286.41668701171875" x="543.2442216873169" class="er relationshipLabelBox"/><text style="text-anchor: middle; dominant-baseline: middle; font-size: 12px;" y="293.41668701171875" x="553.910888671875" id="rel12" class="er relationshipLabel">is-a</text></svg>